<?xml version="1.0" encoding="utf-8"?>
<!-- Generator: Adobe Illustrator 16.0.0, SVG Export Plug-In . SVG Version: 6.00 Build 0)  -->
<!DOCTYPE svg PUBLIC "-//W3C//DTD SVG 1.1//EN" "http://www.w3.org/Graphics/SVG/1.1/DTD/svg11.dtd">
<svg version="1.1" id="Vrstva_1" xmlns="http://www.w3.org/2000/svg" xmlns:xlink="http://www.w3.org/1999/xlink" x="0px" y="0px"
	 width="418.146px" height="122.284px" viewBox="0 0 418.146 122.284" enable-background="new 0 0 418.146 122.284"
	 xml:space="preserve">
<path opacity="0.05" d="M351.621,81.466c16.251,0,29.425-13.174,29.425-29.424c0-16.251-13.174-29.425-29.425-29.425
	s-29.425,13.174-29.425,29.425C322.196,68.292,335.37,81.466,351.621,81.466 M351.621,36.487c8.582,0,15.538,6.964,15.538,15.554
	c0,8.591-6.956,15.554-15.538,15.554s-15.539-6.963-15.539-15.554C336.082,43.451,343.039,36.487,351.621,36.487"/>
<path opacity="0.05" d="M414.918,30.638c1.79,0,3.228-1.459,3.228-3.283c0-1.817-1.438-3.273-3.207-3.273h-0.021
	c-1.791,0-3.238,1.456-3.238,3.273C411.68,29.179,413.127,30.638,414.918,30.638 M414.918,24.59h0.021
	c1.449,0,2.597,1.235,2.597,2.775c0,1.537-1.147,2.765-2.597,2.751c-1.458,0-2.643-1.214-2.643-2.761
	C412.296,25.825,413.481,24.59,414.918,24.59"/>
<path opacity="0.05" d="M414.307,27.681h0.406c0.469,0,0.694,0.188,0.779,0.625c0.079,0.494,0.152,0.813,0.242,0.942h0.605
	c-0.036-0.129-0.132-0.335-0.215-0.896c-0.08-0.547-0.307-0.829-0.611-0.892v-0.021c0.389-0.118,0.699-0.418,0.699-0.89
	c0-0.337-0.11-0.593-0.331-0.761c-0.211-0.158-0.579-0.266-1.132-0.266c-0.438,0-0.727,0.045-1.027,0.095v3.631h0.584V27.681z
	 M414.307,25.996c0.101-0.005,0.227-0.029,0.41-0.029c0.659,0,0.891,0.321,0.891,0.632c0,0.466-0.404,0.629-0.891,0.629h-0.41
	V25.996z"/>
<path opacity="0.05" d="M400.057,68.578l8.823-38.631c0,0,0.591-2.341-0.968-4.143c-1.557-1.801-3.689-1.7-3.689-1.7h-14.752
	c0,0,0.938,0.72,1.471,1.953c0.471,1.088,0.338,2.221,0.271,2.645c-0.135,0.858-0.309,1.818-0.471,2.513l-9.951,43.467
	c0,0-0.52,2.175,0.96,3.985s3.639,1.718,3.639,1.718h24.676l1.067-0.019c0,0,1.55,0.163,3.029-0.934s1.72-2.785,1.72-2.785
	c0.061-0.229,0.119-0.473,0.177-0.73l1.933-8.401c0,0-1.091,0.975-2.727,1.062H400.057z"/>
<path opacity="0.05" d="M276.436,26.02c0.538,1.34,0.345,2.35,0.248,2.841c-0.146,0.734-0.314,1.522-0.46,2.151l-9.973,43.606
	c0,0-0.613,1.962,0.831,3.877s3.725,1.889,3.725,1.889l12.316,0.002l5.62-24.603h1.639l6.531,20.507
	c0.117,0.36,0.222,0.691,0.331,0.99c0.438,1.206,1.64,2.973,4.486,3.112h8.563c1.318,0,2.433-0.466,3.237-1.184
	c0.651-0.581,1.166-1.254,1.445-2.313c0.072-0.274,0.149-0.566,0.223-0.882l1.568-6.883c0,0-1.195,0.275-2.49-0.106
	c-1.103-0.324-2.237-1.256-2.646-2.06c-0.293-0.579-0.603-1.337-0.995-2.327l-3.502-8.855c4.112-0.963,6.439-2.406,8.678-5.392
	c2.993-4.189,5.143-11.013,5.143-16.815c0-3.331-1.046-6.227-2.838-7.763c-1.709-1.37-4.115-1.71-8.669-1.71l-34.475-0.007
	C274.973,24.095,275.937,24.777,276.436,26.02 M293.567,34.691h4.471c4.03,0,5.146,0.77,5.146,3.391
	c0,2.318-0.705,4.532-1.882,6.066c-1.202,1.471-2.744,2.147-5.268,2.147h-5.14L293.567,34.691z"/>
<path opacity="0.05" d="M104.666,52.333C104.666,23.43,81.235,0,52.333,0C23.429,0,0,23.43,0,52.333
	c0,28.902,23.429,52.333,52.333,52.333C81.235,104.666,104.666,81.235,104.666,52.333 M23.813,52.333
	c0-15.767,12.769-28.548,28.52-28.548s28.519,12.781,28.519,28.548c0,15.767-12.768,28.548-28.519,28.548S23.813,68.1,23.813,52.333
	"/>
<path opacity="0.05" d="M192.803,26.611c0.393,1.677-0.063,2.707-0.304,3.283c-0.2,0.48-0.435,1-0.698,1.55L170.199,73.36
	c0,0-1.136,1.682-0.128,4.31c0.439,1.147,1.527,1.966,2.483,2.355c0.955,0.391,1.775,0.354,1.775,0.354l7.765,0.008l5.511-12.252
	c0.202-0.452,0.651-0.744,1.146-0.744h12.709c0.678,0,1.234,0.54,1.254,1.219l0.179,7.168c0,0-0.11,1.437,1.204,3.038
	c1.281,1.56,3.427,1.564,3.427,1.564l13.33,0.004l-2.485-50.979c-0.073-2.562-0.15-3.256-0.434-3.904
	c-0.052-0.089-0.105-0.18-0.156-0.269c-0.626-0.829-1.555-1.134-3.588-1.134h-23.07C191.121,24.099,192.444,25.074,192.803,26.611
	 M202.426,57.451h-10.02l9.426-20.845L202.426,57.451z"/>
<path opacity="0.05" d="M226.725,35.7c1.071-0.548,2.229-0.517,2.229-0.517l8.921-0.101l-9.022,39.459c0,0-0.534,1.97,0.702,3.831
	c1.401,2.113,3.934,2.011,3.934,2.011l12.218,0.003l10.355-45.304h8.195c3.692,0,4.216-0.419,5.216-5.035l1.407-5.955l-39.098,0.007
	c0,0-1.531-0.07-2.881,1.07c-1.349,1.14-1.601,2.446-1.601,2.446s-0.267,1.151-0.413,1.794l-1.754,7.637
	C225.133,37.046,225.655,36.248,226.725,35.7"/>
<path opacity="0.05" d="M107.858,26.536l0.358,2.002c0.923,5.185,2.247,14.227,2.247,23.458c0,14.173-1.353,23.632-1.353,23.632
	c0.095,3.11,2.602,4.747,4.76,4.747h12.875l13.186-27.979l-0.637,23.231c0.094,3.11,2.601,4.747,4.759,4.747h12.876l24.743-51.751
	c0.518-1.046,0.783-1.885,0.783-2.401c0-1.463-1.036-2.137-3.686-2.137l-14.263,0.007c0,0,1.15,0.737,1.671,2.443
	c0.383,1.253,0.069,2.395-0.093,2.879c-0.276,0.826-0.622,1.703-0.988,2.467l-9.938,20.515l-0.86-28.304h-15.457L127.17,52.334
	c0,0-1.04-7.861-1.759-12.617c-0.719-4.756-1.766-8.745-2.437-11.761c0,0-0.279-1.705-1.688-2.854
	c-1.41-1.149-3.064-1.016-3.064-1.016l-12.035,0.006C106.187,24.093,107.337,24.83,107.858,26.536"/>
<path opacity="0.05" d="M201.332,87.896C81.377,98.744,16.757,119.683,18.398,122.128c1.642,2.445,80.343-24.54,203.822-24.54
	c73.552,0,122.449,12.692,151.639,19.331c19.813,4.507,31.081,5.164,34.278-1.772C416.045,97.995,321.286,77.048,201.332,87.896"/>
</svg>
