<?xml version="1.0" encoding="utf-8"?>
<!-- Generator: Adobe Illustrator 16.0.0, SVG Export Plug-In . SVG Version: 6.00 Build 0)  -->
<!DOCTYPE svg PUBLIC "-//W3C//DTD SVG 1.1//EN" "http://www.w3.org/Graphics/SVG/1.1/DTD/svg11.dtd">
<svg version="1.1" id="Vrstva_1" xmlns="http://www.w3.org/2000/svg" xmlns:xlink="http://www.w3.org/1999/xlink" x="0px" y="0px"
	 width="418.115px" height="122.293px" viewBox="0 0 418.115 122.293" enable-background="new 0 0 418.115 122.293"
	 xml:space="preserve">
<g>
	<path fill-rule="evenodd" clip-rule="evenodd" fill="#FFFFFF" d="M54.754,0c1.888,0.243,3.778,0.469,5.663,0.733
		c20.547,2.877,38.485,19.504,42.785,39.833c3.895,18.413-0.543,34.65-13.491,48.314c-8.117,8.565-18.224,13.7-29.959,15.252
		c-17.322,2.289-32.355-2.7-44.738-15.032C6.431,80.553,1.497,70.09,0.28,58.003C-2.377,31.621,14.118,8.035,39.703,1.641
		c2.888-0.721,5.901-0.941,8.855-1.397C49.025,0.171,49.489,0.082,49.954,0C51.554,0,53.154,0,54.754,0z M80.764,52.455
		c0.002-15.792-12.713-28.611-28.42-28.651c-15.505-0.041-28.393,12.769-28.64,27.998c-0.25,15.42,12.099,29.121,28.526,29.168
		C67.941,81.013,80.761,68.202,80.764,52.455z"/>
	<path fill-rule="evenodd" clip-rule="evenodd" fill="#FFFFFF" d="M418.115,28.08c-0.093,0.171-0.197,0.337-0.275,0.515
		c-0.688,1.557-2.134,2.365-3.653,2.034c-1.475-0.32-2.495-1.561-2.538-3.085c-0.044-1.555,0.902-2.885,2.313-3.25
		c1.635-0.424,3.074,0.275,3.851,1.864c0.083,0.17,0.201,0.323,0.304,0.483C418.115,27.12,418.115,27.6,418.115,28.08z
		 M417.465,27.459c0.015-1.517-1.104-2.753-2.525-2.794c-1.452-0.042-2.73,1.229-2.746,2.728c-0.016,1.482,1.269,2.839,2.684,2.836
		C416.269,30.226,417.45,28.961,417.465,27.459z"/>
	<path fill-rule="evenodd" clip-rule="evenodd" fill="#FFFFFF" d="M18.283,121.871c0.745-0.423,1.446-0.977,2.243-1.247
		c6.082-2.062,12.12-4.285,18.289-6.049c15.169-4.336,30.571-7.745,46.083-10.585c14.45-2.645,28.94-5.088,43.45-7.383
		c9.702-1.534,19.461-2.722,29.21-3.939c8.879-1.109,17.772-2.122,26.672-3.044c8.187-0.847,16.384-1.634,24.592-2.232
		c10.24-0.747,20.488-1.512,30.747-1.835c12.743-0.4,25.502-0.549,38.251-0.444c9.824,0.08,19.653,0.552,29.463,1.146
		c19.514,1.182,38.927,3.295,58.115,7.149c10.107,2.03,20.112,4.467,29.671,8.429c3.809,1.578,7.513,3.377,10.614,6.188
		c0.266,0.24,0.522,0.494,0.764,0.76c3.207,3.535,2.528,7.681-1.712,9.941c-3.221,1.716-6.754,1.798-10.289,1.603
		c-9.829-0.542-19.312-3.038-28.836-5.246c-15.677-3.634-31.386-7.132-47.284-9.636c-10.846-1.708-21.729-3.276-32.647-4.394
		c-12.354-1.265-24.755-2.305-37.161-2.803c-13.734-0.552-27.498-0.487-41.249-0.482c-7.509,0.003-15.026,0.292-22.524,0.709
		c-12.007,0.668-24.023,1.322-35.997,2.404c-12.887,1.165-25.756,2.613-38.585,4.297c-27.22,3.572-54.13,8.862-80.849,15.147
		c-3.107,0.73-6.25,1.308-9.384,1.923c-0.48,0.095-0.995,0.014-1.494,0.014C18.386,122.131,18.334,122.001,18.283,121.871z"/>
	<path fill-rule="evenodd" clip-rule="evenodd" fill="#FFFFFF" d="M106.595,24.233c4.119,0,8.196-0.059,12.27,0.026
		c1.947,0.041,3.464,1.533,3.988,3.592c1.833,7.212,2.937,14.554,3.872,21.925c0.089,0.701,0.207,1.398,0.366,2.467
		c0.319-0.688,0.507-1.057,0.665-1.438c3.513-8.483,7.037-16.961,10.509-25.46c0.362-0.886,0.8-1.184,1.751-1.172
		c4.279,0.054,8.56,0.058,12.838,0c1.097-0.015,1.411,0.302,1.438,1.412c0.21,8.668,0.491,17.335,0.753,26.002
		c0.003,0.108,0.052,0.214,0.125,0.5c0.226-0.365,0.401-0.601,0.526-0.86c3.032-6.251,6.058-12.506,9.083-18.76
		c0.174-0.359,0.33-0.728,0.504-1.087c1.166-2.407,1.654-4.778-0.47-6.945c0.159-0.122,0.217-0.205,0.274-0.205
		c4.759-0.012,9.519-0.074,14.277-0.003c2.904,0.043,3.679,1.319,2.44,3.948c-3.354,7.115-6.769,14.202-10.16,21.299
		c-4.734,9.907-9.48,19.807-14.182,29.728c-0.412,0.869-0.856,1.23-1.859,1.213c-3.799-0.067-7.599-0.021-11.399-0.028
		c-3.041-0.006-5.021-2.014-4.95-5.071c0.168-7.232,0.365-14.463,0.55-21.694c0.005-0.184,0.001-0.369,0.001-0.925
		c-0.381,0.726-0.609,1.123-0.804,1.536c-3.949,8.379-7.905,16.755-11.821,25.149c-0.356,0.763-0.768,1.036-1.61,1.026
		c-3.919-0.046-7.839-0.006-11.759-0.025c-3.051-0.015-4.953-2.456-4.672-5.508c0.489-5.329,0.818-10.675,1.134-16.018
		c0.494-8.369-0.091-16.691-1.269-24.978c-0.337-2.371-0.719-4.739-1.213-7.081C107.61,25.942,107.043,25.167,106.595,24.233z"/>
	<path fill-rule="evenodd" clip-rule="evenodd" fill="#FFFFFF" d="M275.255,24.197c0.554,0,0.949,0,1.346,0
		c10.959,0,21.918-0.009,32.877,0.01c1.516,0.003,3.046,0.036,4.543,0.244c3.944,0.548,5.971,2.238,6.497,6.214
		c1.039,7.849-1.026,14.965-5.976,21.168c-1.487,1.864-3.595,2.885-5.854,3.569c-0.487,0.147-0.974,0.296-1.614,0.491
		c0.585,1.483,1.135,2.88,1.687,4.276c0.777,1.968,1.557,3.934,2.334,5.9c0.863,2.184,2.481,3.245,4.815,3.248
		c0.192,0.001,0.385,0.018,0.78,0.036c-0.713,2.875-1.24,5.7-2.144,8.401c-0.584,1.745-2.171,2.613-4.071,2.628
		c-2.8,0.021-5.6,0.008-8.399,0.006c-2.816-0.002-4.255-1.031-5.127-3.752c-2.097-6.535-4.174-13.077-6.246-19.621
		c-0.211-0.666-0.338-1.242-1.296-1.216c-1.008,0.027-0.902,0.747-1.033,1.311c-1.716,7.428-3.431,14.856-5.093,22.295
		c-0.182,0.813-0.514,1.003-1.275,0.997c-3.76-0.032-7.52,0.005-11.278-0.021c-3.009-0.021-5.185-2.646-4.527-5.578
		c2.172-9.7,4.405-19.387,6.615-29.078c1.198-5.252,2.403-10.504,3.594-15.758C277.015,27.292,276.944,26.976,275.255,24.197z
		 M290.822,46.326c2.269,0,4.341,0.081,6.404-0.026c1.557-0.081,2.949-0.73,3.933-2.006c1.499-1.947,2.08-4.205,1.954-6.619
		c-0.086-1.666-0.733-2.493-2.367-2.661c-2.251-0.23-4.53-0.192-6.799-0.217c-0.205-0.002-0.548,0.338-0.603,0.571
		C292.493,38.964,291.679,42.57,290.822,46.326z"/>
	<path fill-rule="evenodd" clip-rule="evenodd" fill="#FFFFFF" d="M351.649,22.757c15.954-0.203,29.54,13.299,29.303,29.848
		c-0.229,16.005-13.343,28.993-29.812,28.884c-16.259-0.108-29.295-13.579-28.994-29.934
		C322.451,35.004,336.261,22.438,351.649,22.757z M367.084,52.16c0.015-8.608-6.93-15.619-15.489-15.637
		c-8.567-0.018-15.586,6.973-15.599,15.537c-0.012,8.594,6.96,15.624,15.501,15.631C360.083,67.698,367.07,60.737,367.084,52.16z"/>
	<path fill-rule="evenodd" clip-rule="evenodd" fill="#FFFFFF" d="M220.688,80.389c-3.784,0-7.456,0-11.129,0
		c-0.68,0-1.359,0.008-2.039-0.002c-2.738-0.038-4.619-1.954-4.679-4.718c-0.049-2.235-0.153-4.471-0.2-6.706
		c-0.022-1.053-0.532-1.533-1.556-1.533c-4.038,0.001-8.077,0.012-12.115-0.008c-0.922-0.005-1.345,0.514-1.679,1.264
		c-1.542,3.464-3.129,6.907-4.638,10.386c-0.411,0.946-0.865,1.42-2.008,1.353c-2.072-0.123-4.157-0.028-6.236-0.036
		c-3.806-0.016-5.982-3.528-4.242-6.977c2.823-5.596,5.727-11.151,8.596-16.724c4.314-8.377,8.649-16.742,12.917-25.143
		c0.583-1.148,1.124-2.466,1.137-3.712c0.013-1.172-0.697-2.353-1.106-3.581c0.052-0.005,0.31-0.052,0.568-0.051
		c7.597,0.012,15.193-0.002,22.79,0.063c2.292,0.02,3.005,0.876,3.114,3.18c0.572,12.09,1.15,24.179,1.739,36.268
		c0.257,5.266,0.545,10.53,0.814,15.795C220.749,79.74,220.713,79.977,220.688,80.389z M192.335,57.485
		c0.657,0.031,1.08,0.067,1.503,0.069c2.277,0.006,4.555,0.003,6.832,0.002c1.76-0.001,1.744-0.001,1.69-1.787
		c-0.166-5.466-0.317-10.933-0.478-16.398c-0.021-0.708-0.061-1.416-0.092-2.124c-0.099-0.007-0.197-0.015-0.295-0.022
		C198.478,43.899,195.461,50.573,192.335,57.485z"/>
	<path fill-rule="evenodd" clip-rule="evenodd" fill="#FFFFFF" d="M270.791,24.197c-0.682,2.826-1.252,5.435-1.949,8.01
		c-0.645,2.378-1.355,2.857-3.857,2.873c-2.519,0.016-5.041,0.074-7.557-0.027c-1.169-0.047-1.558,0.37-1.803,1.458
		c-3.181,14.095-6.423,28.175-9.597,42.271c-0.271,1.205-0.644,1.696-1.99,1.649c-3.436-0.121-6.877-0.037-10.316-0.042
		c-3.615-0.004-5.665-2.568-4.855-6.125c2.001-8.793,4.025-17.58,6.04-26.37c0.892-3.889,1.785-7.777,2.67-11.668
		c0.069-0.305,0.079-0.623,0.129-1.034c-1.768,0-3.467-0.006-5.166,0.002c-1.239,0.006-2.502-0.111-3.71,0.09
		c-1.241,0.207-2.43,0.733-3.596,1.105c0.65-2.787,1.298-5.826,2.079-8.831c0.534-2.056,2.265-3.306,4.448-3.347
		c2.319-0.043,4.639-0.013,6.958-0.013c10.117,0,20.234,0,30.352,0C269.583,24.197,270.096,24.197,270.791,24.197z"/>
	<path fill-rule="evenodd" clip-rule="evenodd" fill="#FFFFFF" d="M417.779,68.138c-0.665,2.858-1.337,5.894-2.086,8.909
		c-0.502,2.022-2.207,3.331-4.298,3.335c-8.755,0.016-17.509,0.023-26.263-0.004c-3.044-0.01-5.045-2.801-4.324-5.956
		c3.269-14.313,6.55-28.623,9.818-42.936c0.222-0.972,0.411-1.953,0.568-2.937c0.258-1.618-0.433-2.941-1.555-4.276
		c0.548-0.032,0.923-0.073,1.299-0.073c4.157-0.004,8.314-0.008,12.472-0.001c4.171,0.007,6.145,2.506,5.218,6.557
		c-2.804,12.25-5.597,24.502-8.392,36.753c-0.077,0.34-0.124,0.686-0.211,1.169c0.788,0,1.459,0,2.131,0
		c3.838,0,7.676,0.047,11.512-0.024C415.03,68.629,416.387,68.32,417.779,68.138z"/>
	<path fill-rule="evenodd" clip-rule="evenodd" fill="#FFFFFF" d="M415.904,29.269c-0.691-0.292-0.229-1.888-1.593-1.394
		c-0.058,0.449-0.114,0.896-0.171,1.343c-0.098-0.001-0.196-0.001-0.294-0.002c0-1.135,0-2.269,0-3.524
		c0.447,0,0.986-0.109,1.444,0.037c0.335,0.106,0.779,0.537,0.796,0.844C416.133,27.436,415.983,28.311,415.904,29.269z"/>
</g>
</svg>
